<svg width="24" height="24" viewBox="0 0 16 16" fill="none" xmlns="http://www.w3.org/2000/svg">
<path fill-rule="evenodd" clip-rule="evenodd" d="M8.46193 4.61137C8.20397 4.85892 7.79668 4.85892 7.53873 4.61137L7.07713 4.1684C6.53684 3.64992 5.80695 3.33333 5.00033 3.33333C3.34347 3.33333 2.00033 4.67648 2.00033 6.33333C2.00033 7.92175 2.86018 9.23337 4.1015 10.311C5.34387 11.3896 6.82926 12.105 7.71676 12.47C7.90232 12.5464 8.09833 12.5464 8.28389 12.47C9.17139 12.105 10.6568 11.3896 11.8992 10.311C13.1405 9.23336 14.0003 7.92175 14.0003 6.33333C14.0003 4.67648 12.6572 3.33333 11.0003 3.33333C10.1937 3.33333 9.46381 3.64991 8.92353 4.1684L8.46193 4.61137ZM8.00033 3.20638C7.22173 2.4592 6.16465 2 5.00033 2C2.60709 2 0.666992 3.9401 0.666992 6.33333C0.666992 10.5788 5.31389 12.9233 7.20952 13.7031C7.72004 13.9131 8.28061 13.9131 8.79113 13.7031C10.6868 12.9233 15.3337 10.5788 15.3337 6.33333C15.3337 3.9401 13.3936 2 11.0003 2C9.836 2 8.77892 2.4592 8.00033 3.20638Z" fill="#141718"/>
<path d="M4.69594 3.37695C4.35091 3.64087 3.70263 4.14475 3.68219 4.16549C3.58154 4.26765 3.75332 3.8796 3.81492 3.75117C3.82916 3.7215 3.86577 3.70509 3.87637 3.71999C3.97274 3.85546 3.66238 4.0621 3.30444 4.43556C3.20562 4.53866 3.16003 4.59548 3.10381 4.61099C3.04792 4.62642 3.00641 4.53434 2.95526 4.53925C2.78624 4.5555 2.73082 5.08461 2.53049 5.59755C2.45321 5.79543 2.45307 6.00787 2.46321 6.19207C2.47788 6.45859 2.87215 6.66384 3.06663 6.83774C3.23373 6.98715 3.38463 7.11456 3.66407 7.38908C3.89759 7.6185 4.33893 8.00833 4.57873 8.23231C4.97669 8.60402 5.16664 8.86554 5.20289 9.00411C5.22328 9.08203 5.09597 9.16295 4.96831 9.23454C4.84006 9.30646 4.656 9.30674 4.47703 9.2966C4.34541 9.28915 4.1343 9.1439 3.77191 8.88382C3.30811 8.55096 3.03744 8.25228 2.90472 8.15028C2.61687 7.92906 2.54586 7.75086 2.48395 7.61737C2.39708 7.43004 2.49363 7.0651 2.59594 6.91071C2.73268 6.70435 3.0866 6.72652 3.88759 6.56275C4.70742 6.39514 5.24867 6.37779 5.30997 6.35229C5.34181 6.33905 5.37126 6.31665 5.39707 6.291C5.44855 6.23983 5.46405 5.84872 5.45391 5.24514C5.44378 4.64223 5.29015 4.42219 5.25927 4.29407C5.25085 4.25913 5.26926 4.21757 5.28969 4.18654C5.39575 4.02545 5.71906 4.00189 5.86823 4.01172C5.89389 4.01341 5.87391 4.07255 5.83827 4.11879C5.75478 4.22711 5.54731 4.32879 5.19552 4.46152C4.68464 4.65427 4.32756 4.71838 4.2764 4.76431C4.17073 4.85919 4.15335 5.00503 4.1277 5.06633C4.1156 5.09524 4.13246 5.12762 4.43171 5.09767C4.73097 5.06771 5.31903 4.97646 5.65239 4.91931C6.17177 4.83028 6.395 4.80072 6.55415 4.76477C6.75968 4.71834 6.92775 4.72882 7.14267 4.68304C7.31468 4.6464 7.4301 4.56506 7.46097 4.53956C7.55484 4.46204 7.21595 4.4523 7.14405 4.45737C7.11095 4.45971 7.26603 4.50331 7.61152 4.58472C7.90457 4.65378 8.44369 4.74726 8.79656 4.79949C9.14943 4.85172 9.30151 4.85172 9.37986 4.7047C9.59053 4.30938 9.46835 3.9303 9.49892 3.869C9.56696 3.73258 9.75439 3.74564 9.9183 3.72014C10.1924 3.6775 10.5409 3.6842 10.8247 3.7097C11.0551 3.73041 11.239 3.74564 11.4035 3.77622C11.5893 3.81074 11.7515 3.8581 11.9105 3.89911C12.0534 3.93597 12.2326 4.01172 12.4786 4.10374C12.6252 4.1586 12.7248 4.26734 12.8323 4.39039C12.9503 4.52532 13.1236 4.73804 13.2064 4.88198C13.2711 4.99441 13.2883 5.1479 13.3038 5.31197C13.3451 5.74859 13.3092 6.44877 13.2732 6.60224C13.2006 6.9124 13.1863 7.18554 13.1708 7.36543C13.1593 7.49811 13.0941 7.61629 12.997 7.73934C12.8984 7.86434 12.8078 8.03598 12.6796 8.20005C12.5434 8.37457 12.4286 8.5073 12.3415 8.63035C12.2426 8.77014 12.1521 8.90671 12.0446 9.03483C11.9248 9.17755 11.8246 9.35713 11.5995 9.5977C11.4476 9.76015 11.333 9.86961 11.2049 9.95671C11.0462 10.0646 10.842 10.1867 10.6876 10.2641C10.5625 10.3268 10.442 10.3919 10.1914 10.525C10.0364 10.6073 9.91969 10.6789 9.76606 10.7555C9.58532 10.8457 9.45882 10.9757 9.3307 11.0628C9.18363 11.1628 8.95802 11.262 8.78273 11.3344C8.66284 11.3839 8.53709 11.4163 8.41404 11.4573C8.38316 11.4676 8.35275 11.4777 8.28131 11.4829C8.20988 11.4882 8.09835 11.4882 8.34 11.0725C8.58164 10.6568 9.17984 9.82537 9.50322 9.38693C9.82659 8.9485 9.85701 8.92822 9.90816 8.9127C10.1365 8.84346 10.348 8.81577 10.5941 8.71822C10.8309 8.62436 10.9834 8.49808 11.1424 8.38547C11.2933 8.2786 11.4135 8.08883 11.6688 7.74702C12.0226 7.27338 12.315 6.8703 12.4781 6.53925C12.7581 5.971 12.8483 5.55868 12.772 5.5126C12.495 5.34543 11.8996 5.4662 11.2842 5.4407C11.0296 5.43016 10.6036 5.43548 10.3437 5.44562C10.0838 5.45576 10.0026 5.47604 9.74794 5.59294C9.06062 5.90841 8.59823 6.15228 8.54708 6.15243C8.52406 6.1525 8.5162 6.11203 9.1548 6.42081C9.79341 6.72959 11.0811 7.37848 11.7951 7.74825C12.6182 8.1745 12.7353 8.29253 12.7406 8.33355C12.7667 8.53239 12.3371 7.98652 11.8387 7.67083C11.4535 7.42679 10.7523 7.09152 10.3667 6.88843C9.91674 6.65143 9.73595 6.56245 9.11056 6.501C8.60882 6.4517 7.72474 6.48011 7.26019 6.43448C6.79564 6.38886 6.77536 6.2976 6.75478 6.23032C6.69689 6.04112 6.60115 5.9581 6.53479 5.91201C6.50258 5.88965 6.45829 5.89634 6.42726 5.91155C6.30031 5.97377 6.22232 6.08038 5.88205 6.26842C5.58566 6.4322 5.02469 6.70992 4.72221 6.86124C4.41973 7.01256 4.38931 7.0227 4.91608 7.20535C5.44285 7.38801 6.52772 7.74287 7.23361 7.95103C7.9395 8.15919 8.23354 8.20988 8.4357 8.236C8.87295 8.29248 8.99673 8.34384 9.25251 8.33401C9.29906 8.33222 9.28431 8.27318 9.26388 8.23707C9.22264 8.16421 9.14113 8.11894 9.09489 8.09329C9.08805 8.08949 9.11963 8.09805 9.14036 8.11848C9.1611 8.13891 9.17124 8.16933 9.14098 8.19007C9.05367 8.2499 8.87537 8.23139 8.39745 8.28209C8.00965 8.32322 7.33147 8.43417 6.83958 8.4864C5.74464 8.60267 5.60815 8.60008 5.5361 8.62543C5.51217 8.63385 5.606 8.70147 6.3168 8.96585C7.02761 9.23024 8.3761 9.70677 9.09105 9.95733C9.80601 10.2079 9.84656 10.218 9.85225 10.2283C9.85793 10.2386 9.82751 10.2487 9.24913 10.2641C8.67074 10.2795 7.54531 10.2997 6.91485 10.295C6.18217 10.2895 6.0177 10.1981 5.88497 10.1368C5.73533 10.0677 5.547 9.98329 5.20581 9.82014C4.16441 9.32219 3.89773 9.37864 3.80048 9.36312C3.76422 9.35733 3.75394 9.3983 3.76392 9.44439C3.78812 9.55609 3.8458 9.65454 4.02339 9.93905C4.18006 10.1901 4.51528 10.6291 4.72805 10.9046C5.12597 11.4197 5.37065 11.5078 5.55561 11.5802C5.82326 11.6849 6.59655 11.7125 7.04021 11.8718C7.21635 11.935 7.3072 11.9899 7.36342 11.99C7.42471 11.9902 7.47096 11.9082 7.55776 11.8979C7.80178 11.8689 8.024 12.0206 8.10065 12.0309C8.13643 12.0357 8.16717 12.0209 8.18284 11.9802C8.26017 11.7793 8.07623 11.6221 8.00925 11.4836C7.90855 11.2752 7.72781 11.0384 7.58971 10.9099C7.46144 10.8328 7.36926 10.792 7.30797 10.7511C7.27709 10.7305 7.24667 10.7102 7.21533 10.6893" stroke="#141718" stroke-width="2" stroke-linecap="round"/>
<path d="M11.7317 4.54492C11.7317 4.63648 11.7114 4.8411 11.7466 5.07138C11.8003 5.42301 12.1508 5.43531 12.3608 5.62473C12.4276 5.68497 12.4995 5.702 12.5405 5.71244C12.5893 5.72488 12.5001 5.57972 12.4337 5.50306C12.308 5.35784 12.1419 5.3542 11.8065 5.31334C11.5232 5.27881 11.0048 5.27247 10.5204 5.30258C10.036 5.33269 9.60004 5.4138 9.1828 5.53163C8.76557 5.64946 8.38028 5.80155 8.13111 5.92552C7.78054 6.14074 7.6558 6.27531 7.60987 6.38239C7.58422 6.44891 7.5538 6.54016 7.52246 6.542" stroke="#141718" stroke-width="2" stroke-linecap="round"/>
<path d="M7.52307 6.542C7.49265 6.41972 7.24839 6.05287 7.08817 5.80523C6.97514 5.63054 6.81703 5.47771 6.69413 5.32901C6.43789 5.11885 6.17304 4.9047 5.87625 4.69486C5.76195 4.61682 5.7214 4.59654 5.61816 4.54492" stroke="#141718" stroke-width="2" stroke-linecap="round"/>
<path d="M9.58083 7.74108C9.52 7.76135 9.37713 7.80222 9.03578 7.91421C8.80407 7.99023 8.46124 8.12759 8.04539 8.23097C7.62953 8.33436 7.153 8.40533 6.82133 8.4419C6.31902 8.49727 6.07888 8.45818 5.96136 8.41225C5.84853 8.36815 5.75105 8.27414 5.65396 8.15677C5.35454 7.79482 5.35133 7.14871 5.38144 6.83056C5.39431 6.69452 5.70834 6.77818 5.99408 6.83932C6.15942 6.8747 6.36093 6.94102 6.90644 7.24611C7.45195 7.5512 8.33404 8.09871 8.82901 8.39596C9.39717 8.73718 9.54949 8.76512 9.66701 8.78048C9.77361 8.79441 9.88746 8.75528 10.01 8.68385C10.3229 8.50152 10.5831 7.94877 10.6714 7.69038C10.7599 7.4314 11.4022 7.35272 11.8936 7.00001C12.1923 6.78561 12.284 6.44205 12.3205 6.26677C12.3374 6.18575 12.0406 6.1133 11.5056 6.00592C11.1569 5.93595 10.6359 5.92896 10.329 5.91836C9.94115 5.90496 9.81679 5.93848 9.74014 5.94877C9.67347 5.95773 9.95659 5.43153 10.4784 4.62809C10.7539 4.20398 10.9017 4.10547 10.968 4.08504C11.0038 4.07404 11.0445 4.06461 11.0806 4.06445C11.1479 4.06417 11.4117 4.21669 11.8157 4.43668C12.0802 4.58067 12.4864 4.75928 12.9623 5.01506C13.3515 5.22423 13.5129 5.42569 13.5698 5.5744C13.5863 5.61772 13.575 5.68132 13.5547 5.72787C13.5155 5.81781 13.4217 5.84631 13.2438 5.94278C12.8215 6.1718 12.4191 6.50043 12.0976 6.92842C11.8947 7.19845 11.7051 7.6403 11.5751 7.91544C11.4452 8.19057 11.4046 8.3021 11.2215 8.64852C11.0384 8.99493 10.7139 9.57286 10.5265 9.89592C10.2255 10.4148 10.0727 10.6083 10.0064 10.6748C9.92986 10.7109 9.79682 10.7213 9.64843 10.7061C9.59128 10.6909 9.571 10.6605 9.55011 10.6292" stroke="#141718" stroke-width="2" stroke-linecap="round"/>
</svg>
