<svg fill="none" height="24" viewBox="0 0 24 25" width="24" xmlns="http://www.w3.org/2000/svg"><path clip-rule="evenodd" d="m12.6924 7.58308c-.3869.37131-.9979.37131-1.3848 0l-.6924-.66446c-.81043-.77773-1.90526-1.2526-3.1152-1.2526-2.48528 0-4.5 2.01471-4.5 4.49998 0 2.3826 1.28979 4.3501 3.15176 5.9666 1.86356 1.6179 4.09164 2.6909 5.42284 3.2385.2784.1145.5724.1145.8508 0 1.3312-.5476 3.5593-1.6206 5.4228-3.2385 1.862-1.6165 3.1518-3.584 3.1518-5.9666 0-2.48527-2.0147-4.49998-4.5-4.49998-1.2099 0-2.3048.47487-3.1152 1.2526zm-.6924-2.10749c-1.1679-1.12077-2.75351-1.80957-4.5-1.80957-3.58985 0-6.5 2.91014-6.5 6.49998 0 6.3683 6.97034 9.885 9.8138 11.0547.7658.315 1.6066.315 2.3724 0 2.8435-1.1697 9.8138-4.6864 9.8138-11.0547 0-3.58984-2.9101-6.49998-6.5-6.49998-1.7465 0-3.3321.6888-4.5 1.80957z" fill="#141718" fill-rule="evenodd"/></svg>