<svg fill="none" height="13" viewBox="0 0 16 13" width="16" xmlns="http://www.w3.org/2000/svg"><path d="m4.2508 2.22265c-.15317.22976-.09108.5402.13868.69338.22976.15317.5402.09108.69337-.13868zm1.35354-1.12892.41603.27735zm4.79166 0 .416-.277347zm.5215 1.68362c.1531.22976.4636.29185.6933.13868.2298-.15318.2919-.46362.1387-.69338zm-1.41734 4.72265c0 .82843-.67157 1.5-1.5 1.5v1c1.38071 0 2.50004-1.11929 2.50004-2.5zm-1.5 1.5c-.82842 0-1.5-.67157-1.5-1.5h-1c0 1.38071 1.11929 2.5 2.5 2.5zm-1.5-1.5c0-.82843.67158-1.5 1.5-1.5v-1c-1.38071 0-2.5 1.11929-2.5 2.5zm1.5-1.5c.82843 0 1.5.67157 1.5 1.5h1.00004c0-1.38071-1.11933-2.5-2.50004-2.5zm-2.91731-3.22265.93752-1.40627-.83205-.554697-.93752 1.406267zm1.63089-1.77735h2.57284v-1h-2.57284zm3.26622.37108.93754 1.40627.832-.5547-.9375-1.406267zm-.69338-.37108c.27863 0 .53883.13925.69338.37108l.83204-.554697c-.34-.510031-.91243-.816383-1.52542-.816383zm-3.26621.37108c.15455-.23183.41474-.37108.69337-.37108v-1c-.61298 0-1.1854.306352-1.52542.816383zm-2.02021 1.62892h8.00004v-1h-8.00004zm10.16664 2.16667v4.66666h1v-4.66666zm-2.1666 6.83333h-8.00004v1h8.00004zm-10.1667-2.16667v-4.66666h-1.000004v4.66666zm2.16666 2.16667c-1.19661 0-2.16666-.97-2.16666-2.16667h-1.000004c0 1.74887 1.417764 3.16667 3.166664 3.16667zm10.16664-2.16667c0 1.19667-.97 2.16667-2.1666 2.16667v1c1.7489 0 3.1666-1.4178 3.1666-3.16667zm-2.1666-6.83333c1.1966 0 2.1666.97005 2.1666 2.16667h1c0-1.7489-1.4177-3.16667-3.1666-3.16667zm-8.00004-1c-1.7489 0-3.166664 1.41777-3.166664 3.16667h1.000004c0-1.19662.97005-2.16667 2.16666-2.16667z" fill="#fefefe"/></svg>