<svg width="32" height="32" viewBox="0 0 32 32" fill="none" xmlns="http://www.w3.org/2000/svg">
<path d="M26.6668 16V24C26.6668 26.9455 24.279 29.3333 21.3335 29.3333H10.6668C7.72131 29.3333 5.3335 26.9455 5.3335 24V16" stroke="#141718" stroke-width="2.5" stroke-linejoin="round"/>
<path d="M22.3581 2.66602H9.64146C7.21832 2.66602 5.03931 4.32569 4.13938 6.85675L3.12874 9.69918C2.82281 10.5596 2.61134 11.4803 2.83447 12.3659C3.36293 14.463 5.07744 15.9993 7.1109 15.9993C9.5655 15.9993 11.5553 13.7608 11.5553 10.9993C11.5553 13.7608 13.5452 15.9993 15.9998 15.9993C18.4544 15.9993 20.4442 13.7608 20.4442 10.9993C20.4442 13.7608 22.4341 15.9993 24.8887 15.9993C26.9221 15.9993 28.6366 14.463 29.1651 12.3658C29.3882 11.4803 29.1768 10.5596 28.8708 9.69918L27.8602 6.85674C26.9603 4.32569 24.7812 2.66602 22.3581 2.66602Z" stroke="#141718" stroke-width="2.5" stroke-linejoin="round"/>
<path d="M12 25.334C12 23.1248 13.7909 21.334 16 21.334C18.2091 21.334 20 23.1248 20 25.334V29.334H12V25.334Z" stroke="#141718" stroke-width="2.5" stroke-linejoin="round"/>
</svg>
