<svg width="64" height="64" viewBox="0 0 64 64" fill="none" xmlns="http://www.w3.org/2000/svg">
<path fill-rule="evenodd" clip-rule="evenodd" d="M32 58.6673C41 58.6673 56 42.1289 56 29.0377C56 15.9465 45.2548 5.33398 32 5.33398C18.7452 5.33398 8 15.9465 8 29.0377C8 42.1289 23 58.6673 32 58.6673ZM32 37.334C36.4183 37.334 40 33.7523 40 29.334C40 24.9157 36.4183 21.334 32 21.334C27.5817 21.334 24 24.9157 24 29.334C24 33.7523 27.5817 37.334 32 37.334Z" fill="#141718"/>
<circle cx="32" cy="29.6523" r="20" fill="#141718"/>
<path d="M40 29.6523V35.6523C40 37.8615 38.2091 39.6523 36 39.6523H28C25.7909 39.6523 24 37.8615 24 35.6523V29.6523" stroke="#FEFEFE" stroke-width="1.5" stroke-linejoin="round"/>
<path d="M36.7689 19.6523H27.2315C25.4141 19.6523 23.7798 20.8971 23.1049 22.7954L22.3469 24.9272C22.1175 25.5725 21.9589 26.2631 22.1262 26.9272C22.5226 28.5001 23.8084 29.6523 25.3335 29.6523C27.1745 29.6523 28.6669 27.9734 28.6669 25.9023C28.6669 27.9734 30.1593 29.6523 32.0002 29.6523C33.8412 29.6523 35.3335 27.9734 35.3335 25.9023C35.3335 27.9734 36.8259 29.6523 38.6669 29.6523C40.192 29.6523 41.4778 28.5001 41.8742 26.9272C42.0415 26.2631 41.8829 25.5725 41.6535 24.9272L40.8955 22.7954C40.2206 20.8971 38.5863 19.6523 36.7689 19.6523Z" stroke="#FEFEFE" stroke-width="1.5" stroke-linejoin="round"/>
<path d="M29 36.6523C29 34.9955 30.3431 33.6523 32 33.6523C33.6569 33.6523 35 34.9955 35 36.6523V39.6523H29V36.6523Z" stroke="#FEFEFE" stroke-width="1.5" stroke-linejoin="round"/>
</svg>
